<svg width="148" height="102" viewBox="0 0 148 102" fill="none" xmlns="http://www.w3.org/2000/svg">
<path fill-rule="evenodd" clip-rule="evenodd" d="M55.8749 4.91491C57.5649 2.76331 59.0948 0.815471 60.9516 0.209748C64.303 -0.883544 68.9669 2.45046 73.5644 6.64922C78.12 2.50598 82.7283 -0.755939 86.0484 0.327143C87.9052 0.932867 89.4351 2.88071 91.1251 5.03231C93.7705 8.4004 96.8081 12.2678 102.106 12.2678C107.137 12.2678 107.653 16.3614 108.124 20.1059C108.466 22.822 108.785 25.3544 110.787 26.0077C111.118 26.1155 111.496 26.234 111.911 26.3637C117.473 28.1038 129.524 31.8743 119.085 39.2569C114.318 42.6284 117.211 41.8934 121.712 40.7494C127.803 39.2017 136.84 36.9055 133.836 43.0191C130.628 49.5469 133.792 50.0628 137.816 50.7188C140.345 51.1312 143.214 51.599 145.053 53.6511C149.816 58.9672 145.053 72.2164 139.214 70.4989C133.375 68.7814 119.085 79.7407 125.078 83.0938C131.07 86.447 105.102 101.25 102.106 94.5437C100.667 91.3227 95.5149 92.5331 89.1911 94.0188C84.0656 95.223 78.1699 96.6081 72.8567 95.9614C67.8911 96.2701 62.5241 95.0092 57.8089 93.9014C51.4851 92.4157 46.3335 91.2053 44.8943 94.4264C41.898 101.133 15.9298 86.3296 21.9225 82.9764C27.9151 79.6233 13.625 68.664 7.78596 70.3815C1.94696 72.099 -2.81644 58.8498 1.94696 53.5337C3.78573 51.4816 6.65485 51.0138 9.18434 50.6014C13.2076 49.9454 16.3716 49.4295 13.164 42.9017C10.1599 36.7881 19.1966 39.0843 25.2876 40.632C29.7895 41.776 32.6823 42.511 27.9151 39.1395C17.4764 31.7569 29.5272 27.9864 35.0889 26.2463C35.5036 26.1166 35.8822 25.9981 36.2127 25.8903C38.2153 25.237 38.534 22.7046 38.8759 19.9885C39.3473 16.244 39.8625 12.1504 44.8943 12.1504C50.1919 12.1504 53.2295 8.28301 55.8749 4.91491Z" fill="#E0D929"/>
<g filter="url(#filter0_d_8_38)">
<mask id="path-2-inside-1_8_38" fill="white">
<path fill-rule="evenodd" clip-rule="evenodd" d="M56.9935 6.66146C58.5963 4.62082 60.0474 2.77342 61.8084 2.19893C64.987 1.16202 69.4104 4.32411 73.7708 8.30636C78.0915 4.37675 82.4622 1.28301 85.6111 2.31025C87.3721 2.88474 88.8231 4.73213 90.4259 6.77278C92.935 9.96719 95.8159 13.6351 100.84 13.6351C105.613 13.6351 106.101 17.5176 106.548 21.069C106.873 23.645 107.175 26.0469 109.074 26.6665C109.388 26.7688 109.747 26.8811 110.14 27.0042C115.415 28.6545 126.844 32.2305 116.944 39.2325C112.423 42.4301 115.166 41.733 119.436 40.648C125.213 39.1801 133.783 37.0023 130.934 42.8006C127.892 48.9919 130.893 49.4811 134.709 50.1033C137.108 50.4944 139.829 50.9381 141.573 52.8844C146.091 57.9263 141.573 70.4923 136.035 68.8634C130.497 67.2344 116.944 77.6285 122.628 80.8088C128.311 83.989 103.682 98.0288 100.84 91.6682C99.4754 88.6133 94.5894 89.7612 88.5917 91.1703C83.7305 92.3124 78.1389 93.6261 73.0997 93.0128C68.3901 93.3056 63.2999 92.1097 58.8278 91.059C52.83 89.6499 47.9441 88.502 46.5792 91.5569C43.7374 97.9175 19.1083 83.8777 24.792 80.6974C30.4756 77.5172 16.9223 67.1231 11.3844 68.752C5.84653 70.381 1.32878 57.815 5.84653 52.7731C7.59048 50.8268 10.3116 50.3831 12.7107 49.992C16.5265 49.3698 19.5274 48.8805 16.4851 42.6893C13.636 36.891 22.2066 39.0688 27.9835 40.5367C32.2533 41.6217 34.9969 42.3188 30.4756 39.1212C20.5752 32.1192 32.0045 28.5432 37.2794 26.8929C37.6727 26.7698 38.0317 26.6575 38.3452 26.5552C40.2445 25.9356 40.5469 23.5337 40.8711 20.9577C41.3181 17.4063 41.8069 13.5238 46.5792 13.5238C51.6035 13.5238 54.4845 9.85587 56.9935 6.66146Z"/>
</mask>
<path fill-rule="evenodd" clip-rule="evenodd" d="M56.9935 6.66146C58.5963 4.62082 60.0474 2.77342 61.8084 2.19893C64.987 1.16202 69.4104 4.32411 73.7708 8.30636C78.0915 4.37675 82.4622 1.28301 85.6111 2.31025C87.3721 2.88474 88.8231 4.73213 90.4259 6.77278C92.935 9.96719 95.8159 13.6351 100.84 13.6351C105.613 13.6351 106.101 17.5176 106.548 21.069C106.873 23.645 107.175 26.0469 109.074 26.6665C109.388 26.7688 109.747 26.8811 110.14 27.0042C115.415 28.6545 126.844 32.2305 116.944 39.2325C112.423 42.4301 115.166 41.733 119.436 40.648C125.213 39.1801 133.783 37.0023 130.934 42.8006C127.892 48.9919 130.893 49.4811 134.709 50.1033C137.108 50.4944 139.829 50.9381 141.573 52.8844C146.091 57.9263 141.573 70.4923 136.035 68.8634C130.497 67.2344 116.944 77.6285 122.628 80.8088C128.311 83.989 103.682 98.0288 100.84 91.6682C99.4754 88.6133 94.5894 89.7612 88.5917 91.1703C83.7305 92.3124 78.1389 93.6261 73.0997 93.0128C68.3901 93.3056 63.2999 92.1097 58.8278 91.059C52.83 89.6499 47.9441 88.502 46.5792 91.5569C43.7374 97.9175 19.1083 83.8777 24.792 80.6974C30.4756 77.5172 16.9223 67.1231 11.3844 68.752C5.84653 70.381 1.32878 57.815 5.84653 52.7731C7.59048 50.8268 10.3116 50.3831 12.7107 49.992C16.5265 49.3698 19.5274 48.8805 16.4851 42.6893C13.636 36.891 22.2066 39.0688 27.9835 40.5367C32.2533 41.6217 34.9969 42.3188 30.4756 39.1212C20.5752 32.1192 32.0045 28.5432 37.2794 26.8929C37.6727 26.7698 38.0317 26.6575 38.3452 26.5552C40.2445 25.9356 40.5469 23.5337 40.8711 20.9577C41.3181 17.4063 41.8069 13.5238 46.5792 13.5238C51.6035 13.5238 54.4845 9.85587 56.9935 6.66146Z" fill="#E0D929"/>
<path d="M61.8084 2.19893L63.0489 6.0017H63.0489L61.8084 2.19893ZM56.9935 6.66146L53.8478 4.1907V4.1907L56.9935 6.66146ZM73.7708 8.30636L71.0733 11.26L73.7652 13.7184L76.4621 11.2655L73.7708 8.30636ZM85.6111 2.31025L84.3705 6.11302V6.11302L85.6111 2.31025ZM90.4259 6.77277L93.5716 4.30202L93.5716 4.30201L90.4259 6.77277ZM106.548 21.069L110.517 20.5695V20.5694L106.548 21.069ZM109.074 26.6665L110.315 22.8638L110.315 22.8637L109.074 26.6665ZM110.14 27.0042L111.335 23.1867L110.14 27.0042ZM116.944 39.2325L119.254 42.4983V42.4983L116.944 39.2325ZM119.436 40.648L118.451 36.7712L118.451 36.7712L119.436 40.648ZM130.934 42.8006L127.344 41.0366L130.934 42.8006ZM134.709 50.1033L135.352 46.1554H135.352L134.709 50.1033ZM141.573 52.8844L138.594 55.5537V55.5537L141.573 52.8844ZM136.035 68.8633L137.164 65.0259V65.0259L136.035 68.8633ZM100.84 91.6682L104.492 90.0365L100.84 91.6682ZM88.5917 91.1703L89.5065 95.0643H89.5066L88.5917 91.1703ZM73.0998 93.0128L73.5831 89.0421L73.2183 88.9977L72.8515 89.0205L73.0998 93.0128ZM58.8278 91.059L57.9129 94.953H57.9129L58.8278 91.059ZM46.5792 91.5569L50.2313 93.1886L46.5792 91.5569ZM24.792 80.6974L22.8388 77.2067L22.8388 77.2067L24.792 80.6974ZM11.3844 68.752L12.5132 72.5895H12.5132L11.3844 68.752ZM5.84654 52.7731L8.82558 55.4424H8.82558L5.84654 52.7731ZM12.7107 49.992L12.067 46.0441H12.067L12.7107 49.992ZM16.4851 42.6893L12.8951 44.4533L16.4851 42.6893ZM27.9835 40.5367L26.9984 44.4135L27.9835 40.5367ZM30.4756 39.1212L32.7853 35.8554H32.7853L30.4756 39.1212ZM37.2794 26.8929L36.085 23.0753H36.085L37.2794 26.8929ZM38.3452 26.5552L39.5858 30.3579L39.5858 30.3579L38.3452 26.5552ZM40.8711 20.9577L36.9024 20.4581V20.4581L40.8711 20.9577ZM60.5679 -1.60384C58.8174 -1.0328 57.4815 0.0768197 56.5033 1.06188C55.5243 2.04775 54.6121 3.21766 53.8478 4.1907L60.1392 9.13222C60.9778 8.06461 61.5925 7.2905 62.1799 6.69889C62.457 6.4199 62.6711 6.24133 62.8311 6.12943C62.9871 6.02028 63.0569 5.99911 63.0489 6.0017L60.5679 -1.60384ZM76.4683 5.35277C74.2253 3.30431 71.7635 1.27354 69.3159 -0.11107C67.0144 -1.41303 63.8187 -2.66433 60.5679 -1.60384L63.0489 6.0017C62.9767 6.02528 63.5819 5.83657 65.3769 6.85199C67.0258 7.78476 68.9559 9.32616 71.0733 11.26L76.4683 5.35277ZM76.4621 11.2655C78.5575 9.35983 80.4626 7.84912 82.0867 6.93843C83.8516 5.94882 84.4443 6.13708 84.3705 6.11302L86.8516 -1.49252C83.629 -2.54382 80.4619 -1.32231 78.174 -0.0394585C75.7454 1.32232 73.3048 3.32328 71.0795 5.34717L76.4621 11.2655ZM84.3705 6.11302C84.3626 6.11043 84.4323 6.1316 84.5884 6.24075C84.7484 6.35264 84.9625 6.53122 85.2395 6.81021C85.827 7.40182 86.4417 8.17593 87.2803 9.24354L93.5716 4.30201C92.8074 3.32898 91.8951 2.15907 90.9162 1.1732C89.938 0.188137 88.6021 -0.92148 86.8516 -1.49252L84.3705 6.11302ZM87.2803 9.24353C89.5803 12.1719 93.5964 17.6351 100.84 17.6351V9.63514C98.0355 9.63514 96.2896 7.76244 93.5716 4.30202L87.2803 9.24353ZM100.84 17.6351C101.167 17.6351 101.379 17.6684 101.503 17.6983C101.623 17.7271 101.671 17.7548 101.677 17.7582C101.682 17.761 101.685 17.7624 101.696 17.7743C101.71 17.7898 101.751 17.8372 101.808 17.9415C101.935 18.1731 102.085 18.5725 102.226 19.2397C102.368 19.9102 102.464 20.6492 102.58 21.5686L110.517 20.5694C110.32 19.0071 110.037 16.3133 108.825 14.0991C108.154 12.8744 107.156 11.6868 105.688 10.8363C104.233 9.99297 102.582 9.63514 100.84 9.63514V17.6351ZM102.58 21.5686C102.725 22.7269 102.923 24.4444 103.449 25.9348C104.019 27.5445 105.233 29.6208 107.834 30.4693L110.315 22.8637C110.584 22.9516 110.821 23.1248 110.968 23.298C111.082 23.4316 111.064 23.4723 110.992 23.2681C110.92 23.0648 110.839 22.7476 110.754 22.2593C110.669 21.7707 110.601 21.2328 110.517 20.5695L102.58 21.5686ZM107.834 30.4693C108.175 30.5806 108.559 30.7007 108.946 30.8217L111.335 23.1867C110.935 23.0615 110.601 22.957 110.315 22.8638L107.834 30.4693ZM108.946 30.8217C110.281 31.2396 111.83 31.7262 113.31 32.33C114.846 32.9568 115.974 33.58 116.613 34.1341C117.233 34.6713 116.75 34.5282 116.861 33.9024C116.906 33.6481 116.869 34.3863 114.634 35.9667L119.254 42.4983C121.969 40.5777 124.216 38.2431 124.738 35.2975C125.325 31.9803 123.512 29.5272 121.853 28.0889C120.213 26.6674 118.113 25.6496 116.332 24.9229C114.495 24.1733 112.636 23.5939 111.335 23.1867L108.946 30.8217ZM114.634 35.9667C113.538 36.7423 112.459 37.5621 111.776 38.3664C111.582 38.5946 111.3 38.9586 111.066 39.4381C110.85 39.8791 110.483 40.8062 110.668 41.9897C110.884 43.3722 111.724 44.3427 112.58 44.878C113.305 45.3317 114.001 45.4613 114.35 45.5091C115.061 45.6067 115.727 45.5344 116.094 45.4868C116.537 45.4293 117.003 45.3404 117.444 45.2461C118.323 45.0585 119.38 44.7894 120.421 44.5248L118.451 36.7712C117.357 37.0491 116.469 37.274 115.775 37.4223C115.429 37.496 115.201 37.5356 115.064 37.5533C114.852 37.5809 115.053 37.5307 115.437 37.5834C115.622 37.6087 116.188 37.6992 116.822 38.0952C117.585 38.5728 118.37 39.4673 118.572 40.7537C118.742 41.8409 118.399 42.6516 118.251 42.9544C118.084 43.2956 117.912 43.4996 117.875 43.544C117.816 43.6137 118.09 43.3215 119.254 42.4983L114.634 35.9667ZM120.421 44.5248C123.504 43.7414 126.53 43.0019 128.425 42.9995C128.846 42.999 129.009 43.0408 128.996 43.0371C128.989 43.0351 128.531 42.9113 128.087 42.3812C126.946 41.0203 127.914 39.8775 127.344 41.0366L134.524 44.5647C135.379 42.8246 136.345 39.7796 134.218 37.2421C133.28 36.1239 132.083 35.5931 131.147 35.3317C130.204 35.0686 129.248 34.9985 128.415 34.9995C125.293 35.0034 121.145 36.0868 118.451 36.7712L120.421 44.5248ZM127.344 41.0366C126.492 42.7711 125.874 44.4675 125.722 46.0926C125.556 47.8546 125.939 49.6783 127.231 51.165C128.389 52.4961 129.887 53.0896 130.937 53.4031C132.003 53.7217 133.182 53.9071 134.065 54.0512L135.352 46.1554C134.864 46.0757 134.458 46.0092 134.083 45.937C133.711 45.8653 133.435 45.8001 133.226 45.7377C133.015 45.6746 132.94 45.634 132.947 45.6378C132.961 45.6456 133.102 45.7248 133.268 45.9157C133.448 46.1226 133.577 46.3687 133.641 46.6038C133.701 46.8184 133.679 46.9211 133.687 46.8396C133.695 46.7515 133.73 46.5259 133.863 46.1273C133.994 45.7325 134.203 45.2186 134.524 44.5647L127.344 41.0366ZM134.065 54.0512C136.787 54.495 137.956 54.8417 138.594 55.5537L144.552 50.2151C141.702 47.0345 137.428 46.4939 135.352 46.1554L134.065 54.0512ZM138.594 55.5537C138.948 55.9494 139.315 56.7238 139.401 58.0057C139.486 59.265 139.271 60.714 138.802 62.0464C138.321 63.4131 137.683 64.3477 137.183 64.8017C136.739 65.2051 136.816 64.9237 137.164 65.0259L134.906 72.7008C138.023 73.6175 140.742 72.3761 142.561 70.724C144.325 69.1225 145.572 66.9059 146.348 64.7045C147.135 62.4688 147.549 59.9328 147.383 57.4688C147.219 55.0274 146.456 52.3404 144.552 50.2151L138.594 55.5537ZM137.164 65.0259C134.447 64.2268 131.498 64.9977 129.301 65.8886C126.928 66.8512 124.543 68.319 122.571 69.9526C120.687 71.5139 118.754 73.5772 117.831 75.8874C117.351 77.0895 117.018 78.6839 117.49 80.3857C117.991 82.1899 119.221 83.4863 120.674 84.2995L124.581 77.3181C124.575 77.3148 124.69 77.3784 124.836 77.5511C124.99 77.7335 125.123 77.9733 125.199 78.2455C125.346 78.7765 125.183 79.0498 125.26 78.8558C125.453 78.3734 126.189 77.3438 127.675 76.1127C129.074 74.9537 130.76 73.9297 132.308 73.3022C133.077 72.9904 133.73 72.8098 134.234 72.7335C134.761 72.6538 134.951 72.7138 134.906 72.7008L137.164 65.0259ZM120.674 84.2995C120.485 84.1935 120.042 83.8808 119.738 83.2414C119.428 82.59 119.451 81.9953 119.517 81.6655C119.606 81.2195 119.737 81.327 119.097 82.0115C117.962 83.2267 115.751 84.8372 113.04 86.2914C110.348 87.7353 107.593 88.7947 105.534 89.1653C104.483 89.3544 103.92 89.3064 103.737 89.2634C103.668 89.2473 104.206 89.3967 104.492 90.0365L97.1882 93.2999C98.1845 95.5299 100.115 96.632 101.914 97.053C103.599 97.4473 105.382 97.3211 106.951 97.0388C110.132 96.4664 113.711 95.0097 116.822 93.3412C119.913 91.683 122.971 89.5848 124.944 87.4719C125.859 86.4923 127.003 85.0308 127.362 83.2332C127.563 82.2276 127.535 81.0113 126.964 79.808C126.398 78.6167 125.481 77.8216 124.581 77.3181L120.674 84.2995ZM104.492 90.0365C102.75 86.1364 98.8263 85.6524 96.3017 85.7482C93.6848 85.8474 90.5306 86.6059 87.6768 87.2764L89.5066 95.0643C92.6506 94.3257 94.9382 93.8056 96.6049 93.7424C98.364 93.6757 97.5659 94.1452 97.1882 93.2999L104.492 90.0365ZM87.6769 87.2764C82.6495 88.4575 77.7847 89.5535 73.5831 89.0421L72.6165 96.9835C78.4932 97.6987 84.8116 96.1674 89.5065 95.0643L87.6769 87.2764ZM57.9129 94.953C62.2573 95.9737 67.9424 97.3412 73.348 97.005L72.8515 89.0205C68.8379 89.27 64.3425 88.2458 59.7426 87.1651L57.9129 94.953ZM50.2313 93.1886C49.8536 94.0339 49.0555 93.5644 50.8145 93.6311C52.4813 93.6943 54.7689 94.2143 57.9129 94.953L59.7426 87.1651C56.8889 86.4946 53.7347 85.7361 51.1178 85.6368C48.5932 85.5411 44.6697 86.025 42.9271 89.9252L50.2313 93.1886ZM22.8388 77.2067C21.9389 77.7102 21.0219 78.5054 20.4559 79.6967C19.8842 80.9 19.8563 82.1162 20.0573 83.1219C20.4165 84.9195 21.5606 86.381 22.4754 87.3606C24.4488 89.4735 27.5066 91.5717 30.5977 93.2298C33.7081 94.8984 37.2876 96.355 40.4683 96.9275C42.0372 97.2098 43.8202 97.336 45.5053 96.9417C47.3048 96.5207 49.2349 95.4186 50.2313 93.1886L42.9271 89.9252C43.213 89.2854 43.7518 89.1359 43.6827 89.1521C43.4992 89.195 42.9362 89.2431 41.8853 89.0539C39.8264 88.6834 37.071 87.624 34.3794 86.1801C31.6685 84.7259 29.4571 83.1153 28.3222 81.9002C27.6829 81.2157 27.8131 81.1082 27.9022 81.5542C27.9681 81.884 27.9912 82.4787 27.6817 83.13C27.3779 83.7694 26.9345 84.0822 26.7452 84.1881L22.8388 77.2067ZM12.5132 72.5895C12.4688 72.6025 12.6586 72.5425 13.1855 72.6222C13.6899 72.6985 14.3429 72.8791 15.1117 73.1909C16.6591 73.8184 18.3455 74.8424 19.7442 76.0014C21.23 77.2325 21.9664 78.2621 22.1591 78.7444C22.2367 78.9385 22.0732 78.6652 22.2206 78.1342C22.2962 77.862 22.4293 77.6222 22.5835 77.4397C22.7293 77.2671 22.8445 77.2035 22.8388 77.2067L26.7452 84.1882C28.1985 83.3749 29.4281 82.0786 29.929 80.2744C30.4015 78.5726 30.0684 76.9782 29.588 75.7761C28.665 73.4659 26.7326 71.4025 24.8484 69.8412C22.8769 68.2077 20.4919 66.7399 18.1181 65.7773C15.9212 64.8863 12.9724 64.1155 10.2557 64.9146L12.5132 72.5895ZM2.8675 50.1038C0.963118 52.2291 0.200401 54.9161 0.0361626 57.3574C-0.129604 59.8215 0.284299 62.3575 1.07187 64.5932C1.84736 66.7946 3.09491 69.0112 4.85836 70.6127C6.67758 72.2648 9.39666 73.5062 12.5132 72.5895L10.2557 64.9146C10.6033 64.8124 10.6809 65.0938 10.2367 64.6904C9.73672 64.2364 9.09883 63.3018 8.61737 61.9351C8.14798 60.6027 7.93341 59.1537 8.01812 57.8944C8.10436 56.6125 8.47108 55.838 8.82558 55.4424L2.8675 50.1038ZM12.067 46.0441C9.99107 46.3826 5.71737 46.9232 2.8675 50.1038L8.82558 55.4424C9.4636 54.7304 10.6322 54.3837 13.3544 53.9398L12.067 46.0441ZM12.8951 44.4533C13.2164 45.1073 13.4257 45.6211 13.5568 46.0159C13.6892 46.4146 13.7246 46.6402 13.7329 46.7282C13.7405 46.8098 13.7188 46.7071 13.778 46.4925C13.8429 46.2574 13.9713 46.0113 14.1512 45.8044C14.3172 45.6135 14.4585 45.5343 14.4728 45.5265C14.4798 45.5227 14.4047 45.5633 14.1933 45.6264C13.9846 45.6887 13.7089 45.754 13.3365 45.8257C12.9617 45.8979 12.5557 45.9644 12.067 46.0441L13.3544 53.9398C14.2378 53.7958 15.4161 53.6104 16.4828 53.2918C17.5325 52.9783 19.0307 52.3848 20.1881 51.0537C21.4808 49.567 21.8632 47.7433 21.6979 45.9813C21.5455 44.3562 20.9274 42.6598 20.0751 40.9252L12.8951 44.4533ZM28.9686 36.6599C26.2749 35.9754 22.1268 34.8921 19.0046 34.8882C18.1717 34.8871 17.215 34.9572 16.2724 35.2204C15.3362 35.4818 14.1392 36.0125 13.2019 37.1308C11.0749 39.6683 12.0401 42.7132 12.8951 44.4533L20.0751 40.9252C19.5056 39.7662 20.4736 40.909 19.3329 42.2699C18.8886 42.7999 18.4306 42.9238 18.4236 42.9258C18.4102 42.9295 18.5731 42.8876 18.9945 42.8882C20.8896 42.8906 23.9152 43.6301 26.9984 44.4135L28.9686 36.6599ZM28.1659 42.3869C29.3299 43.2102 29.6039 43.5023 29.5448 43.4327C29.507 43.3882 29.3351 43.1843 29.1682 42.8431C29.02 42.5403 28.6778 41.7296 28.8478 40.6423C29.049 39.356 29.834 38.4615 30.5977 37.9839C31.231 37.5878 31.7976 37.4974 31.9824 37.472C32.3662 37.4194 32.5679 37.4696 32.3555 37.442C32.2189 37.4243 31.9902 37.3847 31.6449 37.311C30.95 37.1627 30.0622 36.9378 28.9686 36.6599L26.9984 44.4135C28.0398 44.6781 29.096 44.9472 29.9751 45.1348C30.4168 45.2291 30.8826 45.3179 31.3256 45.3755C31.6927 45.4231 32.3589 45.4953 33.07 45.3978C33.4184 45.35 34.1143 45.2203 34.8397 44.7667C35.6955 44.2314 36.5356 43.2609 36.7518 41.8783C36.9368 40.6949 36.5698 39.7678 36.3539 39.3268C36.1193 38.8473 35.837 38.4833 35.6434 38.2551C34.9605 37.4508 33.8819 36.6309 32.7853 35.8554L28.1659 42.3869ZM36.085 23.0753C34.7832 23.4826 32.9248 24.0619 31.0876 24.8116C29.3065 25.5383 27.2068 26.5561 25.5668 27.9776C23.9075 29.4159 22.094 31.869 22.6815 35.1862C23.2031 38.1318 25.4503 40.4664 28.1659 42.3869L32.7853 35.8554C30.5506 34.2749 30.5138 33.5368 30.5589 33.7911C30.6697 34.4168 30.1869 34.56 30.8067 34.0227C31.4459 33.4687 32.5738 32.8455 34.1099 32.2187C35.5898 31.6148 37.1381 31.1283 38.4738 30.7104L36.085 23.0753ZM37.1046 22.7524C36.8189 22.8456 36.4849 22.9502 36.085 23.0753L38.4738 30.7104C38.8605 30.5894 39.2446 30.4693 39.5858 30.3579L37.1046 22.7524ZM36.9024 20.4581C36.8189 21.1215 36.7504 21.6593 36.6656 22.148C36.5809 22.6362 36.4995 22.9535 36.4276 23.1567C36.3554 23.361 36.3375 23.3203 36.4513 23.1867C36.599 23.0135 36.8354 22.8403 37.1046 22.7524L39.5858 30.3579C42.1866 29.5095 43.4009 27.4332 43.97 25.8234C44.497 24.3331 44.694 22.6156 44.8398 21.4572L36.9024 20.4581ZM46.5792 9.52382C44.8379 9.52382 43.1868 9.88166 41.7314 10.725C40.2637 11.5755 39.2654 12.7631 38.5947 13.9878C37.3822 16.202 37.0991 18.8958 36.9024 20.4581L44.8398 21.4572C44.9555 20.5379 45.051 19.7989 45.1933 19.1284C45.3349 18.4611 45.4847 18.0618 45.6116 17.8302C45.6687 17.7259 45.709 17.6785 45.7234 17.663C45.7345 17.6511 45.7374 17.6497 45.7423 17.6469C45.7482 17.6434 45.7962 17.6158 45.9161 17.587C46.0405 17.5571 46.2525 17.5238 46.5792 17.5238V9.52382ZM53.8478 4.1907C51.1299 7.65112 49.384 9.52382 46.5792 9.52382V17.5238C53.8231 17.5238 57.8391 12.0606 60.1392 9.13222L53.8478 4.1907Z" fill="white" mask="url(#path-2-inside-1_8_38)"/>
</g>
<path d="M26.156 68.938C25.7747 68.938 25.3933 68.886 25.012 68.782C24.6133 68.678 24.284 68.496 24.024 68.236C23.764 67.976 23.634 67.612 23.634 67.144C23.634 66.832 23.738 66.598 23.946 66.442C24.1367 66.3033 24.3013 66.234 24.44 66.234C24.6307 66.234 24.778 66.2773 24.882 66.364C24.9687 66.468 25.012 66.572 25.012 66.676C25.012 66.8147 24.9687 66.936 24.882 67.04C24.778 67.1613 24.6393 67.222 24.466 67.222C24.3273 67.222 24.2233 67.2133 24.154 67.196C24.0673 67.1787 24.024 67.17 24.024 67.17C24.0067 67.2393 24.0327 67.3953 24.102 67.638C24.1713 67.8807 24.362 68.106 24.674 68.314C24.986 68.5393 25.4887 68.652 26.182 68.652C27.0487 68.652 27.8893 68.4007 28.704 67.898C29.536 67.3953 30.3247 66.7453 31.07 65.948C31.8327 65.1507 32.552 64.284 33.228 63.348C33.904 62.412 34.528 61.502 35.1 60.618C35.6893 59.7167 36.218 58.9367 36.686 58.278C37.1713 57.602 37.5873 57.1427 37.934 56.9C38.1247 56.7613 38.2547 56.7093 38.324 56.744C38.4107 56.7613 38.3327 56.874 38.09 57.082C38.0033 57.1687 37.7693 57.42 37.388 57.836C37.0067 58.2347 36.5387 58.7113 35.984 59.266C35.4293 59.8207 34.8313 60.3667 34.19 60.904C33.566 61.4413 32.9507 61.892 32.344 62.256C31.7373 62.62 31.2 62.802 30.732 62.802C30.316 62.802 30.03 62.698 29.874 62.49C29.718 62.2647 29.64 61.9873 29.64 61.658C29.64 61.086 29.822 60.4793 30.186 59.838C30.5673 59.1967 31.0353 58.564 31.59 57.94C32.1447 57.2987 32.6907 56.7007 33.228 56.146C33.7827 55.574 34.242 55.0713 34.606 54.638C34.9873 54.2047 35.178 53.8753 35.178 53.65C35.178 53.3553 35.0133 53.104 34.684 52.896C34.372 52.6707 33.852 52.558 33.124 52.558C32.292 52.558 31.4687 52.74 30.654 53.104C29.8393 53.468 29.094 53.9273 28.418 54.482C27.7593 55.0367 27.2307 55.6087 26.832 56.198C26.4333 56.77 26.234 57.2727 26.234 57.706C26.234 57.9487 26.3033 58.148 26.442 58.304C26.5807 58.46 26.8233 58.538 27.17 58.538C27.5687 58.538 28.002 58.3993 28.47 58.122C28.9553 57.8273 29.4233 57.4633 29.874 57.03C30.342 56.5967 30.7667 56.146 31.148 55.678C31.5293 55.21 31.8413 54.794 32.084 54.43C32.3267 54.066 32.4653 53.8147 32.5 53.676C32.5347 53.52 32.5693 53.4507 32.604 53.468C32.656 53.4853 32.6907 53.5633 32.708 53.702C32.7773 54.0313 32.6993 54.4213 32.474 54.872C32.2487 55.3227 31.928 55.7907 31.512 56.276C31.096 56.744 30.628 57.186 30.108 57.602C29.6053 58.0007 29.094 58.33 28.574 58.59C28.0713 58.8327 27.612 58.954 27.196 58.954C26.676 58.954 26.3293 58.8413 26.156 58.616C26 58.3907 25.922 58.122 25.922 57.81C25.922 57.3247 26.1213 56.77 26.52 56.146C26.9187 55.522 27.456 54.9153 28.132 54.326C28.8253 53.7367 29.6053 53.2513 30.472 52.87C31.356 52.4887 32.266 52.298 33.202 52.298C34.1033 52.298 34.7447 52.4453 35.126 52.74C35.5073 53.0173 35.698 53.3553 35.698 53.754C35.698 54.378 35.5073 54.9933 35.126 55.6C34.7447 56.1893 34.2767 56.77 33.722 57.342C33.1673 57.914 32.604 58.4687 32.032 59.006C31.4773 59.5433 31.0093 60.0547 30.628 60.54C30.2467 61.008 30.056 61.45 30.056 61.866C30.056 62.0393 30.108 62.204 30.212 62.36C30.316 62.4987 30.472 62.568 30.68 62.568C31.0267 62.568 31.46 62.4207 31.98 62.126C32.5 61.8313 33.046 61.45 33.618 60.982C34.2073 60.514 34.7793 60.02 35.334 59.5C35.8887 58.9627 36.374 58.4513 36.79 57.966C37.414 57.238 38.012 56.5793 38.584 55.99C39.1733 55.3833 39.7193 54.8893 40.222 54.508C40.742 54.1267 41.2187 53.884 41.652 53.78C41.8253 53.7453 41.9207 53.7627 41.938 53.832C41.9553 53.9013 41.9033 53.962 41.782 54.014C40.7767 54.4647 39.9273 55.1147 39.234 55.964C38.5407 56.8133 37.8907 57.7667 37.284 58.824C36.6947 59.8813 36.0533 60.956 35.36 62.048C34.8227 62.88 34.2247 63.712 33.566 64.544C32.9073 65.3587 32.188 66.0953 31.408 66.754C30.6453 67.4127 29.822 67.9413 28.938 68.34C28.054 68.7387 27.1267 68.938 26.156 68.938ZM40.857 59.396C41.013 59.4653 41.247 59.5 41.559 59.5C41.8883 59.5 42.1656 59.4827 42.391 59.448C41.9576 59.968 41.4723 60.5313 40.935 61.138C40.3976 61.7273 39.8863 62.3167 39.401 62.906C38.9156 63.4953 38.517 64.024 38.205 64.492C37.8756 64.96 37.711 65.324 37.711 65.584C37.711 65.7573 37.763 65.87 37.867 65.922C37.9536 65.974 38.0663 66 38.205 66C38.621 66 39.0803 65.8353 39.583 65.506C40.103 65.1767 40.6316 64.752 41.169 64.232C41.7236 63.6947 42.261 63.1227 42.781 62.516C43.301 61.9093 43.7776 61.3373 44.211 60.8C44.6616 60.2453 45.043 59.786 45.355 59.422C45.5283 59.474 45.771 59.5 46.083 59.5C46.395 59.5 46.6636 59.4827 46.889 59.448C46.4383 60.02 45.9356 60.6267 45.381 61.268C44.8263 61.892 44.289 62.4987 43.769 63.088C43.2663 63.66 42.8503 64.1713 42.521 64.622C42.1916 65.0553 42.027 65.3847 42.027 65.61C42.027 65.714 42.0703 65.8007 42.157 65.87C42.261 65.922 42.3996 65.948 42.573 65.948C42.9543 65.948 43.3616 65.818 43.795 65.558C44.2456 65.2807 44.6876 64.9427 45.121 64.544C45.5716 64.128 45.9963 63.712 46.395 63.296C46.811 62.8627 47.1663 62.4813 47.461 62.152L47.669 62.334C47.3916 62.6287 47.045 63.0013 46.629 63.452C46.2303 63.8853 45.7883 64.3187 45.303 64.752C44.835 65.168 44.3583 65.5233 43.873 65.818C43.3876 66.0953 42.9283 66.234 42.495 66.234C42.2523 66.234 42.027 66.1647 41.819 66.026C41.611 65.8873 41.507 65.636 41.507 65.272C41.507 64.9427 41.585 64.6047 41.741 64.258C41.897 63.894 42.0616 63.582 42.235 63.322C42.4083 63.0447 42.5123 62.88 42.547 62.828L42.729 62.906C42.573 63.1313 42.3216 63.4347 41.975 63.816C41.6456 64.18 41.2556 64.5527 40.805 64.934C40.3716 65.298 39.9123 65.61 39.427 65.87C38.9416 66.1127 38.465 66.234 37.997 66.234C37.2516 66.234 36.879 65.844 36.879 65.064C36.879 64.7347 37.0176 64.3447 37.295 63.894C37.5723 63.426 37.9276 62.932 38.361 62.412C38.777 61.8747 39.2103 61.346 39.661 60.826C40.1116 60.306 40.5103 59.8293 40.857 59.396ZM56.9717 66.234C56.5904 66.234 56.287 66.156 56.0617 66C55.8364 65.844 55.7237 65.6447 55.7237 65.402C55.7237 65.09 55.845 64.7433 56.0877 64.362C56.3304 63.9633 56.625 63.5473 56.9717 63.114C57.3357 62.6807 57.691 62.2647 58.0377 61.866C58.4017 61.45 58.705 61.0773 58.9477 60.748C59.1904 60.4187 59.3117 60.15 59.3117 59.942C59.3117 59.8033 59.277 59.708 59.2077 59.656C59.1384 59.604 59.017 59.578 58.8437 59.578C58.5837 59.578 58.237 59.7167 57.8037 59.994C57.3877 60.254 56.9197 60.618 56.3997 61.086C55.897 61.5367 55.377 62.048 54.8397 62.62C54.3197 63.1747 53.817 63.7467 53.3317 64.336C52.8464 64.9253 52.4304 65.48 52.0837 66C51.8757 65.9307 51.6417 65.9047 51.3817 65.922C51.1217 65.9393 50.8444 65.974 50.5497 66.026C50.9484 65.5233 51.399 64.9687 51.9017 64.362C52.4217 63.738 52.9157 63.1313 53.3837 62.542C53.8517 61.9527 54.2417 61.424 54.5537 60.956C54.8657 60.4707 55.0217 60.1153 55.0217 59.89C55.0217 59.7687 54.9697 59.6907 54.8657 59.656C54.779 59.604 54.649 59.578 54.4757 59.578C54.1117 59.578 53.6437 59.7947 53.0717 60.228C52.4997 60.6613 51.893 61.216 51.2517 61.892C50.6104 62.5507 49.9777 63.2527 49.3537 63.998C48.747 64.726 48.2097 65.3933 47.7417 66C47.5684 65.948 47.3604 65.922 47.1177 65.922C46.875 65.9047 46.5804 65.9393 46.2337 66.026C46.875 65.0727 47.5077 64.1713 48.1317 63.322C48.773 62.4553 49.3017 61.71 49.7177 61.086C50.151 60.462 50.3677 60.046 50.3677 59.838C50.3677 59.786 50.3504 59.7513 50.3157 59.734C50.2984 59.6993 50.2637 59.682 50.2117 59.682C50.0384 59.682 49.7957 59.8467 49.4837 60.176C49.189 60.5053 48.877 60.878 48.5477 61.294C48.2184 61.71 47.9237 62.0653 47.6637 62.36L47.4297 62.204C47.603 62.0133 47.811 61.762 48.0537 61.45C48.2964 61.1207 48.5564 60.8 48.8337 60.488C49.1284 60.1587 49.423 59.8813 49.7177 59.656C50.0124 59.4307 50.2984 59.318 50.5757 59.318C50.7837 59.318 50.957 59.3787 51.0957 59.5C51.2517 59.604 51.3297 59.7427 51.3297 59.916C51.3297 60.1413 51.2604 60.3927 51.1217 60.67C50.983 60.93 50.7924 61.2333 50.5497 61.58C50.307 61.9093 50.0297 62.2733 49.7177 62.672C49.423 63.0707 49.111 63.5127 48.7817 63.998L48.8337 64.102C49.1804 63.738 49.5357 63.3393 49.8997 62.906C50.281 62.4727 50.671 62.048 51.0697 61.632C51.4684 61.216 51.867 60.8347 52.2657 60.488C52.6644 60.1413 53.0717 59.864 53.4877 59.656C53.9037 59.448 54.311 59.344 54.7097 59.344C55.1257 59.344 55.4117 59.448 55.5677 59.656C55.7237 59.864 55.8017 60.0633 55.8017 60.254C55.8017 60.5313 55.7497 60.8087 55.6457 61.086C55.5417 61.3633 55.4117 61.632 55.2557 61.892C55.0997 62.1347 54.9437 62.36 54.7877 62.568C54.6317 62.7587 54.493 62.9147 54.3717 63.036C54.2504 63.1573 54.181 63.2353 54.1637 63.27L54.0077 63.14C54.129 63.0187 54.3197 62.8107 54.5797 62.516C54.8397 62.2213 55.143 61.9007 55.4897 61.554C55.8537 61.19 56.235 60.8433 56.6337 60.514C57.0324 60.1673 57.431 59.89 57.8297 59.682C58.2284 59.4567 58.6097 59.344 58.9737 59.344C59.407 59.344 59.7017 59.4567 59.8577 59.682C60.031 59.89 60.1177 60.0807 60.1177 60.254C60.1177 60.6353 59.9964 61.06 59.7537 61.528C59.511 61.9787 59.2077 62.438 58.8437 62.906C58.4797 63.3567 58.1157 63.7813 57.7517 64.18C57.3877 64.5787 57.0844 64.9167 56.8417 65.194C56.599 65.454 56.4777 65.6187 56.4777 65.688C56.4777 65.844 56.6597 65.922 57.0237 65.922C57.4917 65.922 57.9597 65.7747 58.4277 65.48C58.913 65.1853 59.3724 64.83 59.8057 64.414C60.239 63.9807 60.629 63.556 60.9757 63.14C61.3397 62.7067 61.6344 62.3687 61.8597 62.126L62.0677 62.282C61.8597 62.5073 61.565 62.8367 61.1837 63.27C60.8197 63.7033 60.4037 64.154 59.9357 64.622C59.4677 65.0727 58.9824 65.454 58.4797 65.766C57.977 66.078 57.4744 66.234 56.9717 66.234ZM71.3174 66.234C70.9361 66.234 70.6327 66.156 70.4074 66C70.1821 65.844 70.0694 65.6447 70.0694 65.402C70.0694 65.09 70.1907 64.7433 70.4334 64.362C70.6761 63.9633 70.9707 63.5473 71.3174 63.114C71.6814 62.6807 72.0367 62.2647 72.3834 61.866C72.7474 61.45 73.0507 61.0773 73.2934 60.748C73.5361 60.4187 73.6574 60.15 73.6574 59.942C73.6574 59.8033 73.6227 59.708 73.5534 59.656C73.4841 59.604 73.3627 59.578 73.1894 59.578C72.9294 59.578 72.5827 59.7167 72.1494 59.994C71.7334 60.254 71.2654 60.618 70.7454 61.086C70.2427 61.5367 69.7227 62.048 69.1854 62.62C68.6654 63.1747 68.1627 63.7467 67.6774 64.336C67.1921 64.9253 66.7761 65.48 66.4294 66C66.2214 65.9307 65.9874 65.9047 65.7274 65.922C65.4674 65.9393 65.1901 65.974 64.8954 66.026C65.2941 65.5233 65.7447 64.9687 66.2474 64.362C66.7674 63.738 67.2614 63.1313 67.7294 62.542C68.1974 61.9527 68.5874 61.424 68.8994 60.956C69.2114 60.4707 69.3674 60.1153 69.3674 59.89C69.3674 59.7687 69.3154 59.6907 69.2114 59.656C69.1247 59.604 68.9947 59.578 68.8214 59.578C68.4574 59.578 67.9894 59.7947 67.4174 60.228C66.8454 60.6613 66.2387 61.216 65.5974 61.892C64.9561 62.5507 64.3234 63.2527 63.6994 63.998C63.0927 64.726 62.5554 65.3933 62.0874 66C61.9141 65.948 61.7061 65.922 61.4634 65.922C61.2207 65.9047 60.9261 65.9393 60.5794 66.026C61.2207 65.0727 61.8534 64.1713 62.4774 63.322C63.1187 62.4553 63.6474 61.71 64.0634 61.086C64.4967 60.462 64.7134 60.046 64.7134 59.838C64.7134 59.786 64.6961 59.7513 64.6614 59.734C64.6441 59.6993 64.6094 59.682 64.5574 59.682C64.3841 59.682 64.1414 59.8467 63.8294 60.176C63.5347 60.5053 63.2227 60.878 62.8934 61.294C62.5641 61.71 62.2694 62.0653 62.0094 62.36L61.7754 62.204C61.9487 62.0133 62.1567 61.762 62.3994 61.45C62.6421 61.1207 62.9021 60.8 63.1794 60.488C63.4741 60.1587 63.7687 59.8813 64.0634 59.656C64.3581 59.4307 64.6441 59.318 64.9214 59.318C65.1294 59.318 65.3027 59.3787 65.4414 59.5C65.5974 59.604 65.6754 59.7427 65.6754 59.916C65.6754 60.1413 65.6061 60.3927 65.4674 60.67C65.3287 60.93 65.1381 61.2333 64.8954 61.58C64.6527 61.9093 64.3754 62.2733 64.0634 62.672C63.7687 63.0707 63.4567 63.5127 63.1274 63.998L63.1794 64.102C63.5261 63.738 63.8814 63.3393 64.2454 62.906C64.6267 62.4727 65.0167 62.048 65.4154 61.632C65.8141 61.216 66.2127 60.8347 66.6114 60.488C67.0101 60.1413 67.4174 59.864 67.8334 59.656C68.2494 59.448 68.6567 59.344 69.0554 59.344C69.4714 59.344 69.7574 59.448 69.9134 59.656C70.0694 59.864 70.1474 60.0633 70.1474 60.254C70.1474 60.5313 70.0954 60.8087 69.9914 61.086C69.8874 61.3633 69.7574 61.632 69.6014 61.892C69.4454 62.1347 69.2894 62.36 69.1334 62.568C68.9774 62.7587 68.8387 62.9147 68.7174 63.036C68.5961 63.1573 68.5267 63.2353 68.5094 63.27L68.3534 63.14C68.4747 63.0187 68.6654 62.8107 68.9254 62.516C69.1854 62.2213 69.4887 61.9007 69.8354 61.554C70.1994 61.19 70.5807 60.8433 70.9794 60.514C71.3781 60.1673 71.7767 59.89 72.1754 59.682C72.5741 59.4567 72.9554 59.344 73.3194 59.344C73.7527 59.344 74.0474 59.4567 74.2034 59.682C74.3767 59.89 74.4634 60.0807 74.4634 60.254C74.4634 60.6353 74.3421 61.06 74.0994 61.528C73.8567 61.9787 73.5534 62.438 73.1894 62.906C72.8254 63.3567 72.4614 63.7813 72.0974 64.18C71.7334 64.5787 71.4301 64.9167 71.1874 65.194C70.9447 65.454 70.8234 65.6187 70.8234 65.688C70.8234 65.844 71.0054 65.922 71.3694 65.922C71.8374 65.922 72.3054 65.7747 72.7734 65.48C73.2587 65.1853 73.7181 64.83 74.1514 64.414C74.5847 63.9807 74.9747 63.556 75.3214 63.14C75.6854 62.7067 75.9801 62.3687 76.2054 62.126L76.4134 62.282C76.2054 62.5073 75.9107 62.8367 75.5294 63.27C75.1654 63.7033 74.7494 64.154 74.2814 64.622C73.8134 65.0727 73.3281 65.454 72.8254 65.766C72.3227 66.078 71.8201 66.234 71.3174 66.234ZM78.7211 59.396C78.9638 59.4653 79.2151 59.5 79.4751 59.5C79.7351 59.4827 80.0038 59.4653 80.2811 59.448C79.8131 59.8987 79.2844 60.436 78.6951 61.06C78.1231 61.6667 77.5684 62.282 77.0311 62.906C76.5111 63.5127 76.0778 64.0587 75.7311 64.544C75.3844 65.012 75.2111 65.3327 75.2111 65.506C75.2111 65.6273 75.2544 65.74 75.3411 65.844C75.4278 65.9307 75.5751 65.974 75.7831 65.974C76.3898 65.974 77.0138 65.792 77.6551 65.428C78.3138 65.064 78.9464 64.6047 79.5531 64.05C80.1771 63.478 80.7578 62.8887 81.2951 62.282C81.8324 61.658 82.3004 61.0947 82.6991 60.592C83.1151 60.072 83.4184 59.6907 83.6091 59.448C83.7478 59.4827 83.9731 59.5 84.2851 59.5C84.6144 59.5 84.8398 59.4913 84.9611 59.474C83.1758 61.6233 81.6071 63.5993 80.2551 65.402C78.9204 67.1873 77.7158 68.7213 76.6411 70.004C75.5664 71.304 74.5438 72.3093 73.5731 73.02C72.5851 73.7307 71.5538 74.086 70.4791 74.086C69.8204 74.086 69.4911 73.826 69.4911 73.306C69.4911 72.9247 69.7338 72.526 70.2191 72.11C70.6871 71.694 71.3198 71.2607 72.1171 70.81C72.9144 70.3767 73.7984 69.9433 74.7691 69.51C75.7398 69.0767 76.7278 68.6607 77.7331 68.262C79.0504 67.742 80.1338 67.17 80.9831 66.546C81.8498 65.9393 82.6038 65.272 83.2451 64.544C83.9038 63.816 84.5711 63.0187 85.2471 62.152L85.4551 62.282C84.7618 63.166 84.0771 63.9807 83.4011 64.726C82.7251 65.454 81.9538 66.13 81.0871 66.754C80.2204 67.378 79.1284 67.9587 77.8111 68.496C76.8231 68.8947 75.8611 69.302 74.9251 69.718C73.9718 70.1513 73.1138 70.5673 72.3511 70.966C71.5711 71.382 70.9558 71.7893 70.5051 72.188C70.0371 72.5867 69.8031 72.9593 69.8031 73.306C69.8031 73.514 69.8724 73.644 70.0111 73.696C70.1498 73.7653 70.3318 73.8 70.5571 73.8C71.0944 73.8 71.6751 73.592 72.2991 73.176C72.9058 72.76 73.5471 72.1967 74.2231 71.486C74.8991 70.7753 75.5838 69.9693 76.2771 69.068C76.9878 68.184 77.7071 67.2653 78.4351 66.312C79.1631 65.3587 79.8998 64.4313 80.6451 63.53L80.5411 63.478C80.5064 63.53 80.3851 63.66 80.1771 63.868C79.9691 64.076 79.7004 64.31 79.3711 64.57C79.0418 64.83 78.6691 65.09 78.2531 65.35C77.8371 65.61 77.3951 65.8267 76.9271 66C76.4764 66.156 76.0171 66.234 75.5491 66.234C75.2198 66.234 74.9684 66.156 74.7951 66C74.6044 65.8613 74.5091 65.662 74.5091 65.402C74.5091 64.986 74.6478 64.518 74.9251 63.998C75.2024 63.4607 75.5664 62.9147 76.0171 62.36C76.4504 61.8053 76.9098 61.268 77.3951 60.748C77.8804 60.228 78.3224 59.7773 78.7211 59.396ZM101.741 51.544C101.932 51.5613 102.036 51.6133 102.053 51.7C102.071 51.7693 101.984 51.7953 101.793 51.778C100.857 51.6913 99.9646 51.7953 99.1153 52.09C98.2659 52.3673 97.5119 52.7487 96.8532 53.234C96.2119 53.7193 95.7006 54.2307 95.3193 54.768C94.9553 55.3053 94.7733 55.7733 94.7733 56.172C94.7733 56.952 95.0766 57.5327 95.6833 57.914C96.2899 58.2953 97.0699 58.486 98.0233 58.486C98.8553 58.486 99.7393 58.3473 100.675 58.07C101.611 57.7753 102.53 57.4027 103.431 56.952C104.333 56.484 105.147 55.9987 105.875 55.496C106.603 54.976 107.184 54.4907 107.617 54.04C108.051 53.5893 108.267 53.2253 108.267 52.948C108.267 52.74 108.181 52.61 108.007 52.558C107.851 52.4887 107.669 52.454 107.461 52.454C106.889 52.454 106.196 52.6533 105.381 53.052C104.567 53.4507 103.691 53.9967 102.755 54.69C101.837 55.366 100.927 56.12 100.025 56.952C99.1413 57.784 98.3266 58.642 97.5813 59.526C96.8533 60.3927 96.2639 61.2247 95.8133 62.022C95.3799 62.8193 95.1633 63.5127 95.1633 64.102C95.1633 64.7607 95.3626 65.2373 95.7613 65.532C96.1773 65.8267 96.6626 65.974 97.2173 65.974C97.7546 65.974 98.3006 65.8267 98.8553 65.532C99.4273 65.2373 99.9819 64.856 100.519 64.388C101.057 63.92 101.533 63.4173 101.949 62.88C102.383 62.3427 102.721 61.814 102.963 61.294C103.223 60.774 103.353 60.3233 103.353 59.942C103.353 59.6127 103.258 59.396 103.067 59.292C102.894 59.188 102.686 59.136 102.443 59.136C101.767 59.136 101.1 59.344 100.441 59.76C99.7826 60.1587 99.1846 60.696 98.6473 61.372C98.1099 62.0307 97.6766 62.7587 97.3473 63.556C97.0353 64.336 96.8793 65.116 96.8793 65.896C96.8793 66.1907 96.9313 66.5287 97.0353 66.91C97.1393 67.2913 97.2433 67.6207 97.3473 67.898C97.4513 68.1927 97.5033 68.3747 97.5033 68.444C97.5206 68.5653 97.5033 68.6607 97.4513 68.73C97.3993 68.7993 97.3213 68.7733 97.2173 68.652C97.1133 68.548 96.9833 68.2533 96.8273 67.768C96.6713 67.2827 96.5933 66.676 96.5933 65.948C96.5933 65.0813 96.7493 64.232 97.0613 63.4C97.3906 62.568 97.8326 61.814 98.3873 61.138C98.9419 60.4447 99.5833 59.8987 100.311 59.5C101.039 59.084 101.819 58.876 102.651 58.876C103.085 58.876 103.466 58.9973 103.795 59.24C104.125 59.4653 104.289 59.8033 104.289 60.254C104.289 60.7913 104.107 61.398 103.743 62.074C103.397 62.75 102.894 63.4087 102.235 64.05C101.594 64.674 100.831 65.194 99.9473 65.61C99.0806 66.0087 98.1359 66.208 97.1133 66.208C96.2119 66.208 95.5446 65.9567 95.1113 65.454C94.6953 64.934 94.4873 64.3707 94.4873 63.764C94.4873 62.932 94.6779 62.074 95.0593 61.19C95.4579 60.306 95.9953 59.4307 96.6713 58.564C97.3473 57.6973 98.1186 56.8827 98.9853 56.12C99.8519 55.3573 100.771 54.69 101.741 54.118C102.729 53.5287 103.717 53.0693 104.705 52.74C105.693 52.3933 106.638 52.22 107.539 52.22C107.747 52.22 107.964 52.2633 108.189 52.35C108.415 52.4367 108.527 52.6013 108.527 52.844C108.527 53.3293 108.302 53.8407 107.851 54.378C107.418 54.9153 106.82 55.444 106.057 55.964C105.312 56.4667 104.48 56.926 103.561 57.342C102.643 57.758 101.698 58.096 100.727 58.356C99.7739 58.5987 98.8639 58.72 97.9973 58.72C96.8706 58.72 95.9779 58.512 95.3193 58.096C94.6779 57.6627 94.3573 56.9347 94.3573 55.912C94.3573 55.3747 94.5739 54.8373 95.0073 54.3C95.4406 53.7453 96.0126 53.2513 96.7233 52.818C97.4513 52.3847 98.2486 52.0467 99.1153 51.804C99.9993 51.5613 100.875 51.4747 101.741 51.544ZM112.309 61.45C112.239 61.5887 112.135 61.71 111.997 61.814C111.875 61.918 111.78 61.9873 111.711 62.022C111.659 62.0393 111.676 61.9873 111.763 61.866C112.075 61.4847 112.274 61.1293 112.361 60.8C112.465 60.4707 112.465 60.2107 112.361 60.02C112.274 59.812 112.101 59.708 111.841 59.708C111.494 59.708 111.087 59.8467 110.619 60.124C110.151 60.4013 109.665 60.7653 109.163 61.216C108.677 61.6667 108.218 62.152 107.785 62.672C107.369 63.1747 107.031 63.6687 106.771 64.154C106.511 64.622 106.381 65.0293 106.381 65.376C106.381 65.636 106.433 65.8007 106.537 65.87C106.641 65.9393 106.745 65.974 106.849 65.974C107.247 65.974 107.707 65.792 108.227 65.428C108.764 65.0467 109.31 64.57 109.865 63.998C110.419 63.426 110.948 62.8453 111.451 62.256C111.953 61.6493 112.387 61.1033 112.751 60.618C113.132 60.1327 113.392 59.8033 113.531 59.63C113.721 59.6993 113.947 59.7253 114.207 59.708C114.484 59.6907 114.718 59.6733 114.909 59.656C114.874 59.708 114.692 59.9247 114.363 60.306C114.051 60.6873 113.669 61.1467 113.219 61.684C112.785 62.204 112.343 62.7413 111.893 63.296C111.459 63.8507 111.095 64.336 110.801 64.752C110.506 65.168 110.359 65.4453 110.359 65.584C110.359 65.7573 110.393 65.87 110.463 65.922C110.549 65.9567 110.679 65.974 110.853 65.974C111.061 65.9567 111.364 65.8613 111.763 65.688C112.161 65.4973 112.673 65.1333 113.297 64.596C113.921 64.0587 114.675 63.2613 115.559 62.204C115.559 62.204 115.593 62.23 115.663 62.282C115.749 62.334 115.793 62.36 115.793 62.36C114.753 63.5733 113.791 64.5267 112.907 65.22C112.023 65.896 111.217 66.234 110.489 66.234C110.107 66.234 109.847 66.1733 109.709 66.052C109.587 65.9307 109.527 65.7573 109.527 65.532C109.527 65.3587 109.596 65.1507 109.735 64.908C109.891 64.648 110.064 64.3967 110.255 64.154C110.445 63.9113 110.601 63.7207 110.723 63.582C110.723 63.582 110.705 63.5733 110.671 63.556C110.636 63.5387 110.619 63.53 110.619 63.53C110.22 64.0153 109.795 64.466 109.345 64.882C108.894 65.298 108.443 65.6273 107.993 65.87C107.559 66.1127 107.135 66.234 106.719 66.234C106.285 66.234 105.982 66.13 105.809 65.922C105.635 65.6967 105.549 65.3587 105.549 64.908C105.549 64.4747 105.687 63.9547 105.965 63.348C106.242 62.724 106.641 62.1173 107.161 61.528C107.681 60.9213 108.305 60.4187 109.033 60.02C109.778 59.6213 110.61 59.422 111.529 59.422C111.979 59.422 112.291 59.5087 112.465 59.682C112.638 59.838 112.716 60.0287 112.699 60.254C112.681 60.4793 112.629 60.7047 112.543 60.93C112.456 61.1553 112.378 61.3287 112.309 61.45ZM123.873 50.27C124.063 50.3047 124.28 50.322 124.523 50.322C124.783 50.322 125.025 50.3047 125.251 50.27C125.216 50.3047 125.034 50.5473 124.705 50.998C124.393 51.4313 123.977 52.012 123.457 52.74C122.937 53.468 122.356 54.2827 121.715 55.184C121.073 56.0853 120.406 57.0213 119.713 57.992C119.019 58.9453 118.352 59.8813 117.711 60.8C117.069 61.7187 116.48 62.5593 115.943 63.322C115.423 64.0673 114.998 64.6827 114.669 65.168C114.339 65.6533 114.149 65.9393 114.097 66.026C113.75 65.9047 113.325 65.922 112.823 66.078C112.823 66.078 112.979 65.8613 113.291 65.428C113.603 64.9773 114.027 64.3793 114.565 63.634C115.085 62.8713 115.665 62.022 116.307 61.086C116.965 60.15 117.641 59.1793 118.335 58.174C119.045 57.1687 119.721 56.198 120.363 55.262C121.021 54.326 121.611 53.4853 122.131 52.74C122.668 51.9773 123.093 51.3793 123.405 50.946C123.717 50.4953 123.873 50.27 123.873 50.27ZM123.197 60.306C123.023 60.306 122.867 60.254 122.729 60.15C122.607 60.046 122.547 59.9073 122.547 59.734C122.547 59.5433 122.607 59.4047 122.729 59.318C122.867 59.2313 122.937 59.188 122.937 59.188C122.902 59.136 122.833 59.11 122.729 59.11C122.625 59.0927 122.529 59.084 122.443 59.084C122.113 59.084 121.793 59.24 121.481 59.552C121.169 59.8467 120.848 60.202 120.519 60.618C120.189 61.0167 119.834 61.372 119.453 61.684C119.071 61.9787 118.629 62.126 118.127 62.126C117.919 62.126 117.745 62.1087 117.607 62.074C117.485 62.022 117.425 61.9267 117.425 61.788C117.425 61.6493 117.529 61.5453 117.737 61.476C117.962 61.3893 118.179 61.346 118.387 61.346C118.803 61.346 119.167 61.424 119.479 61.58C119.808 61.7187 120.059 61.9007 120.233 62.126C120.406 62.334 120.493 62.5593 120.493 62.802C120.493 63.166 120.397 63.504 120.207 63.816C120.033 64.1107 119.834 64.3793 119.609 64.622C119.383 64.8647 119.175 65.0813 118.985 65.272C118.811 65.4453 118.725 65.584 118.725 65.688C118.725 65.7747 118.768 65.844 118.855 65.896C118.941 65.9307 119.089 65.948 119.297 65.948C119.661 65.948 120.051 65.8353 120.467 65.61C120.9 65.3673 121.333 65.0553 121.767 64.674C122.217 64.2927 122.651 63.8853 123.067 63.452C123.483 63.0013 123.855 62.568 124.185 62.152L124.393 62.334C123.907 62.8713 123.361 63.4433 122.755 64.05C122.165 64.6567 121.559 65.1767 120.935 65.61C120.311 66.026 119.704 66.234 119.115 66.234C118.82 66.234 118.569 66.1647 118.361 66.026C118.17 65.9047 118.075 65.6707 118.075 65.324C118.075 64.9947 118.161 64.6827 118.335 64.388C118.508 64.076 118.707 63.79 118.933 63.53C119.158 63.2527 119.357 63.0187 119.531 62.828C119.704 62.6373 119.791 62.49 119.791 62.386C119.791 62.1433 119.678 61.9873 119.453 61.918C119.227 61.8487 118.985 61.8227 118.725 61.84C118.482 61.84 118.317 61.84 118.231 61.84C118.109 61.84 117.988 61.84 117.867 61.84C117.745 61.84 117.685 61.8227 117.685 61.788C117.685 61.736 117.754 61.71 117.893 61.71C118.049 61.71 118.161 61.71 118.231 61.71C118.699 61.71 119.106 61.5627 119.453 61.268C119.799 60.9733 120.129 60.6353 120.441 60.254C120.77 59.8553 121.108 59.5087 121.455 59.214C121.819 58.9193 122.252 58.772 122.755 58.772C123.067 58.772 123.327 58.85 123.535 59.006C123.743 59.1447 123.847 59.344 123.847 59.604C123.847 59.812 123.769 59.9853 123.613 60.124C123.474 60.2453 123.335 60.306 123.197 60.306ZM125.382 66.234C124.567 66.234 124.03 66.052 123.77 65.688C123.51 65.3067 123.38 64.908 123.38 64.492C123.38 63.7813 123.562 63.1227 123.926 62.516C124.29 61.892 124.758 61.3373 125.33 60.852C125.902 60.3667 126.491 59.994 127.098 59.734C127.722 59.4567 128.277 59.318 128.762 59.318C129.109 59.318 129.386 59.37 129.594 59.474C129.802 59.5607 129.906 59.7513 129.906 60.046C129.906 60.3233 129.741 60.618 129.412 60.93C129.083 61.242 128.667 61.5453 128.164 61.84C127.661 62.1173 127.133 62.3773 126.578 62.62C126.041 62.8453 125.547 63.0273 125.096 63.166C124.645 63.3047 124.316 63.374 124.108 63.374C124.108 63.374 124.108 63.3307 124.108 63.244C124.108 63.14 124.108 63.088 124.108 63.088C124.264 63.1053 124.533 63.0533 124.914 62.932C125.313 62.8107 125.755 62.6547 126.24 62.464C126.725 62.256 127.193 62.022 127.644 61.762C128.112 61.502 128.493 61.2247 128.788 60.93C129.1 60.6353 129.256 60.3493 129.256 60.072C129.256 59.9333 129.213 59.812 129.126 59.708C129.057 59.604 128.927 59.552 128.736 59.552C128.459 59.552 128.121 59.6907 127.722 59.968C127.341 60.228 126.951 60.5747 126.552 61.008C126.153 61.4413 125.781 61.9007 125.434 62.386C125.087 62.8713 124.801 63.3393 124.576 63.79C124.368 64.2233 124.264 64.5873 124.264 64.882C124.264 65.2287 124.368 65.4887 124.576 65.662C124.784 65.8353 125.087 65.922 125.486 65.922C126.179 65.922 126.829 65.7573 127.436 65.428C128.06 65.0813 128.623 64.6827 129.126 64.232C129.629 63.764 130.053 63.3307 130.4 62.932C130.747 62.516 130.981 62.2473 131.102 62.126C131.102 62.126 131.128 62.152 131.18 62.204C131.249 62.256 131.284 62.282 131.284 62.282C131.163 62.4207 130.929 62.698 130.582 63.114C130.235 63.53 129.802 63.9807 129.282 64.466C128.762 64.9513 128.173 65.3673 127.514 65.714C126.855 66.0607 126.145 66.234 125.382 66.234Z" fill="#118DAD"/>
<defs>
<filter id="filter0_d_8_38" x="0" y="2" width="147.419" height="99.3024" filterUnits="userSpaceOnUse" color-interpolation-filters="sRGB">
<feFlood flood-opacity="0" result="BackgroundImageFix"/>
<feColorMatrix in="SourceAlpha" type="matrix" values="0 0 0 0 0 0 0 0 0 0 0 0 0 0 0 0 0 0 127 0" result="hardAlpha"/>
<feOffset dy="4"/>
<feGaussianBlur stdDeviation="2"/>
<feComposite in2="hardAlpha" operator="out"/>
<feColorMatrix type="matrix" values="0 0 0 0 0 0 0 0 0 0 0 0 0 0 0 0 0 0 0.25 0"/>
<feBlend mode="normal" in2="BackgroundImageFix" result="effect1_dropShadow_8_38"/>
<feBlend mode="normal" in="SourceGraphic" in2="effect1_dropShadow_8_38" result="shape"/>
</filter>
</defs>
</svg>
